<svg xmlns="http://www.w3.org/2000/svg" xmlns:xlink="http://www.w3.org/1999/xlink" width="1728" zoomAndPan="magnify" viewBox="0 0 1296 1727.999927" height="2304" preserveAspectRatio="xMidYMid meet" version="1.0"><defs><g/><clipPath id="eb10d3738f"><path d="M 88.519531 304.519531 L 1207.480469 304.519531 L 1207.480469 1423.480469 L 88.519531 1423.480469 Z M 88.519531 304.519531 " clip-rule="nonzero"/></clipPath><clipPath id="92dd3f19e4"><path d="M 648 304.519531 C 339.007812 304.519531 88.519531 555.007812 88.519531 864 C 88.519531 1172.992188 339.007812 1423.480469 648 1423.480469 C 956.992188 1423.480469 1207.480469 1172.992188 1207.480469 864 C 1207.480469 555.007812 956.992188 304.519531 648 304.519531 Z M 648 304.519531 " clip-rule="nonzero"/></clipPath><linearGradient x1="0.000000574623" gradientTransform="matrix(4.370931, 0, 0, 4.370931, 88.520761, 304.520717)" y1="128" x2="255.99999" gradientUnits="userSpaceOnUse" y2="128" id="6e7fabbefd"><stop stop-opacity="1" stop-color="rgb(100%, 87.098694%, 34.899902%)" offset="0"/><stop stop-opacity="1" stop-color="rgb(100%, 86.981201%, 34.880066%)" offset="0.0078125"/><stop stop-opacity="1" stop-color="rgb(100%, 86.74469%, 34.843445%)" offset="0.015625"/><stop stop-opacity="1" stop-color="rgb(100%, 86.508179%, 34.806824%)" offset="0.0234375"/><stop stop-opacity="1" stop-color="rgb(100%, 86.273193%, 34.770203%)" offset="0.03125"/><stop stop-opacity="1" stop-color="rgb(100%, 86.036682%, 34.733582%)" offset="0.0390625"/><stop stop-opacity="1" stop-color="rgb(100%, 85.801697%, 34.69696%)" offset="0.046875"/><stop stop-opacity="1" stop-color="rgb(100%, 85.565186%, 34.660339%)" offset="0.0546875"/><stop stop-opacity="1" stop-color="rgb(100%, 85.328674%, 34.623718%)" offset="0.0625"/><stop stop-opacity="1" stop-color="rgb(100%, 85.093689%, 34.587097%)" offset="0.0703125"/><stop stop-opacity="1" stop-color="rgb(100%, 84.857178%, 34.550476%)" offset="0.078125"/><stop stop-opacity="1" stop-color="rgb(100%, 84.620667%, 34.513855%)" offset="0.0859375"/><stop stop-opacity="1" stop-color="rgb(100%, 84.385681%, 34.477234%)" offset="0.09375"/><stop stop-opacity="1" stop-color="rgb(100%, 84.14917%, 34.440613%)" offset="0.101562"/><stop stop-opacity="1" stop-color="rgb(100%, 83.914185%, 34.403992%)" offset="0.109375"/><stop stop-opacity="1" stop-color="rgb(100%, 83.677673%, 34.367371%)" offset="0.117187"/><stop stop-opacity="1" stop-color="rgb(100%, 83.441162%, 34.33075%)" offset="0.125"/><stop stop-opacity="1" stop-color="rgb(100%, 83.206177%, 34.292603%)" offset="0.132812"/><stop stop-opacity="1" stop-color="rgb(100%, 82.969666%, 34.255981%)" offset="0.140625"/><stop stop-opacity="1" stop-color="rgb(100%, 82.73468%, 34.21936%)" offset="0.148438"/><stop stop-opacity="1" stop-color="rgb(100%, 82.498169%, 34.182739%)" offset="0.15625"/><stop stop-opacity="1" stop-color="rgb(100%, 82.261658%, 34.146118%)" offset="0.164062"/><stop stop-opacity="1" stop-color="rgb(100%, 82.026672%, 34.109497%)" offset="0.171875"/><stop stop-opacity="1" stop-color="rgb(100%, 81.790161%, 34.072876%)" offset="0.179688"/><stop stop-opacity="1" stop-color="rgb(100%, 81.55365%, 34.036255%)" offset="0.1875"/><stop stop-opacity="1" stop-color="rgb(100%, 81.318665%, 33.999634%)" offset="0.195312"/><stop stop-opacity="1" stop-color="rgb(100%, 81.082153%, 33.963013%)" offset="0.203125"/><stop stop-opacity="1" stop-color="rgb(100%, 80.847168%, 33.926392%)" offset="0.210937"/><stop stop-opacity="1" stop-color="rgb(100%, 80.610657%, 33.889771%)" offset="0.21875"/><stop stop-opacity="1" stop-color="rgb(100%, 80.374146%, 33.853149%)" offset="0.226562"/><stop stop-opacity="1" stop-color="rgb(100%, 80.13916%, 33.816528%)" offset="0.234375"/><stop stop-opacity="1" stop-color="rgb(100%, 79.902649%, 33.779907%)" offset="0.242187"/><stop stop-opacity="1" stop-color="rgb(100%, 79.666138%, 33.743286%)" offset="0.25"/><stop stop-opacity="1" stop-color="rgb(100%, 79.431152%, 33.705139%)" offset="0.257812"/><stop stop-opacity="1" stop-color="rgb(100%, 79.194641%, 33.668518%)" offset="0.265625"/><stop stop-opacity="1" stop-color="rgb(100%, 78.959656%, 33.631897%)" offset="0.273438"/><stop stop-opacity="1" stop-color="rgb(100%, 78.723145%, 33.595276%)" offset="0.28125"/><stop stop-opacity="1" stop-color="rgb(100%, 78.486633%, 33.558655%)" offset="0.289062"/><stop stop-opacity="1" stop-color="rgb(100%, 78.251648%, 33.522034%)" offset="0.296875"/><stop stop-opacity="1" stop-color="rgb(100%, 78.015137%, 33.485413%)" offset="0.304688"/><stop stop-opacity="1" stop-color="rgb(100%, 77.778625%, 33.448792%)" offset="0.3125"/><stop stop-opacity="1" stop-color="rgb(100%, 77.54364%, 33.41217%)" offset="0.320312"/><stop stop-opacity="1" stop-color="rgb(100%, 77.307129%, 33.375549%)" offset="0.328125"/><stop stop-opacity="1" stop-color="rgb(100%, 77.072144%, 33.338928%)" offset="0.335938"/><stop stop-opacity="1" stop-color="rgb(100%, 76.835632%, 33.302307%)" offset="0.34375"/><stop stop-opacity="1" stop-color="rgb(100%, 76.599121%, 33.265686%)" offset="0.351562"/><stop stop-opacity="1" stop-color="rgb(100%, 76.364136%, 33.229065%)" offset="0.359375"/><stop stop-opacity="1" stop-color="rgb(100%, 76.127625%, 33.192444%)" offset="0.367188"/><stop stop-opacity="1" stop-color="rgb(100%, 75.891113%, 33.154297%)" offset="0.375"/><stop stop-opacity="1" stop-color="rgb(100%, 75.656128%, 33.117676%)" offset="0.382812"/><stop stop-opacity="1" stop-color="rgb(100%, 75.419617%, 33.081055%)" offset="0.390625"/><stop stop-opacity="1" stop-color="rgb(100%, 75.184631%, 33.044434%)" offset="0.398437"/><stop stop-opacity="1" stop-color="rgb(100%, 74.94812%, 33.007812%)" offset="0.40625"/><stop stop-opacity="1" stop-color="rgb(100%, 74.711609%, 32.971191%)" offset="0.414062"/><stop stop-opacity="1" stop-color="rgb(100%, 74.476624%, 32.93457%)" offset="0.421875"/><stop stop-opacity="1" stop-color="rgb(100%, 74.240112%, 32.897949%)" offset="0.429687"/><stop stop-opacity="1" stop-color="rgb(100%, 74.003601%, 32.861328%)" offset="0.4375"/><stop stop-opacity="1" stop-color="rgb(100%, 73.768616%, 32.824707%)" offset="0.445312"/><stop stop-opacity="1" stop-color="rgb(100%, 73.532104%, 32.788086%)" offset="0.453125"/><stop stop-opacity="1" stop-color="rgb(100%, 73.297119%, 32.751465%)" offset="0.460937"/><stop stop-opacity="1" stop-color="rgb(100%, 73.060608%, 32.714844%)" offset="0.46875"/><stop stop-opacity="1" stop-color="rgb(100%, 72.824097%, 32.678223%)" offset="0.476562"/><stop stop-opacity="1" stop-color="rgb(100%, 72.589111%, 32.641602%)" offset="0.484375"/><stop stop-opacity="1" stop-color="rgb(100%, 72.3526%, 32.60498%)" offset="0.492187"/><stop stop-opacity="1" stop-color="rgb(100%, 72.116089%, 32.566833%)" offset="0.5"/><stop stop-opacity="1" stop-color="rgb(100%, 71.881104%, 32.530212%)" offset="0.507812"/><stop stop-opacity="1" stop-color="rgb(100%, 71.644592%, 32.493591%)" offset="0.515625"/><stop stop-opacity="1" stop-color="rgb(100%, 71.409607%, 32.45697%)" offset="0.523438"/><stop stop-opacity="1" stop-color="rgb(100%, 71.173096%, 32.420349%)" offset="0.53125"/><stop stop-opacity="1" stop-color="rgb(100%, 70.936584%, 32.383728%)" offset="0.539062"/><stop stop-opacity="1" stop-color="rgb(100%, 70.701599%, 32.347107%)" offset="0.546875"/><stop stop-opacity="1" stop-color="rgb(100%, 70.465088%, 32.310486%)" offset="0.554688"/><stop stop-opacity="1" stop-color="rgb(100%, 70.228577%, 32.273865%)" offset="0.5625"/><stop stop-opacity="1" stop-color="rgb(100%, 69.993591%, 32.237244%)" offset="0.570312"/><stop stop-opacity="1" stop-color="rgb(100%, 69.75708%, 32.200623%)" offset="0.578125"/><stop stop-opacity="1" stop-color="rgb(100%, 69.522095%, 32.164001%)" offset="0.585938"/><stop stop-opacity="1" stop-color="rgb(100%, 69.285583%, 32.12738%)" offset="0.59375"/><stop stop-opacity="1" stop-color="rgb(100%, 69.049072%, 32.090759%)" offset="0.601562"/><stop stop-opacity="1" stop-color="rgb(100%, 68.814087%, 32.054138%)" offset="0.609375"/><stop stop-opacity="1" stop-color="rgb(100%, 68.577576%, 32.017517%)" offset="0.617188"/><stop stop-opacity="1" stop-color="rgb(100%, 68.341064%, 31.97937%)" offset="0.625"/><stop stop-opacity="1" stop-color="rgb(100%, 68.106079%, 31.942749%)" offset="0.632812"/><stop stop-opacity="1" stop-color="rgb(100%, 67.869568%, 31.906128%)" offset="0.640625"/><stop stop-opacity="1" stop-color="rgb(100%, 67.634583%, 31.869507%)" offset="0.648438"/><stop stop-opacity="1" stop-color="rgb(100%, 67.398071%, 31.832886%)" offset="0.65625"/><stop stop-opacity="1" stop-color="rgb(100%, 67.16156%, 31.796265%)" offset="0.664062"/><stop stop-opacity="1" stop-color="rgb(100%, 66.926575%, 31.759644%)" offset="0.671875"/><stop stop-opacity="1" stop-color="rgb(100%, 66.690063%, 31.723022%)" offset="0.679688"/><stop stop-opacity="1" stop-color="rgb(100%, 66.453552%, 31.686401%)" offset="0.6875"/><stop stop-opacity="1" stop-color="rgb(100%, 66.218567%, 31.64978%)" offset="0.695312"/><stop stop-opacity="1" stop-color="rgb(100%, 65.982056%, 31.613159%)" offset="0.703125"/><stop stop-opacity="1" stop-color="rgb(100%, 65.74707%, 31.576538%)" offset="0.710938"/><stop stop-opacity="1" stop-color="rgb(100%, 65.510559%, 31.539917%)" offset="0.71875"/><stop stop-opacity="1" stop-color="rgb(100%, 65.274048%, 31.503296%)" offset="0.726562"/><stop stop-opacity="1" stop-color="rgb(100%, 65.039062%, 31.466675%)" offset="0.734375"/><stop stop-opacity="1" stop-color="rgb(100%, 64.802551%, 31.428528%)" offset="0.742188"/><stop stop-opacity="1" stop-color="rgb(100%, 64.56604%, 31.391907%)" offset="0.75"/><stop stop-opacity="1" stop-color="rgb(100%, 64.331055%, 31.355286%)" offset="0.757812"/><stop stop-opacity="1" stop-color="rgb(100%, 64.094543%, 31.318665%)" offset="0.765625"/><stop stop-opacity="1" stop-color="rgb(100%, 63.859558%, 31.282043%)" offset="0.773437"/><stop stop-opacity="1" stop-color="rgb(100%, 63.623047%, 31.245422%)" offset="0.78125"/><stop stop-opacity="1" stop-color="rgb(100%, 63.386536%, 31.208801%)" offset="0.789062"/><stop stop-opacity="1" stop-color="rgb(100%, 63.15155%, 31.17218%)" offset="0.796875"/><stop stop-opacity="1" stop-color="rgb(100%, 62.915039%, 31.135559%)" offset="0.804687"/><stop stop-opacity="1" stop-color="rgb(100%, 62.678528%, 31.098938%)" offset="0.8125"/><stop stop-opacity="1" stop-color="rgb(100%, 62.443542%, 31.062317%)" offset="0.820312"/><stop stop-opacity="1" stop-color="rgb(100%, 62.207031%, 31.025696%)" offset="0.828125"/><stop stop-opacity="1" stop-color="rgb(100%, 61.972046%, 30.989075%)" offset="0.835937"/><stop stop-opacity="1" stop-color="rgb(100%, 61.735535%, 30.952454%)" offset="0.84375"/><stop stop-opacity="1" stop-color="rgb(100%, 61.499023%, 30.915833%)" offset="0.851562"/><stop stop-opacity="1" stop-color="rgb(100%, 61.264038%, 30.879211%)" offset="0.859375"/><stop stop-opacity="1" stop-color="rgb(100%, 61.027527%, 30.841064%)" offset="0.867187"/><stop stop-opacity="1" stop-color="rgb(100%, 60.791016%, 30.804443%)" offset="0.875"/><stop stop-opacity="1" stop-color="rgb(100%, 60.55603%, 30.767822%)" offset="0.882812"/><stop stop-opacity="1" stop-color="rgb(100%, 60.319519%, 30.731201%)" offset="0.890625"/><stop stop-opacity="1" stop-color="rgb(100%, 60.084534%, 30.69458%)" offset="0.898437"/><stop stop-opacity="1" stop-color="rgb(100%, 59.848022%, 30.657959%)" offset="0.90625"/><stop stop-opacity="1" stop-color="rgb(100%, 59.611511%, 30.621338%)" offset="0.914062"/><stop stop-opacity="1" stop-color="rgb(100%, 59.376526%, 30.584717%)" offset="0.921875"/><stop stop-opacity="1" stop-color="rgb(100%, 59.140015%, 30.548096%)" offset="0.929687"/><stop stop-opacity="1" stop-color="rgb(100%, 58.903503%, 30.511475%)" offset="0.9375"/><stop stop-opacity="1" stop-color="rgb(100%, 58.668518%, 30.474854%)" offset="0.945312"/><stop stop-opacity="1" stop-color="rgb(100%, 58.432007%, 30.438232%)" offset="0.953125"/><stop stop-opacity="1" stop-color="rgb(100%, 58.197021%, 30.401611%)" offset="0.960937"/><stop stop-opacity="1" stop-color="rgb(100%, 57.96051%, 30.36499%)" offset="0.96875"/><stop stop-opacity="1" stop-color="rgb(100%, 57.723999%, 30.328369%)" offset="0.976562"/><stop stop-opacity="1" stop-color="rgb(100%, 57.489014%, 30.291748%)" offset="0.984375"/><stop stop-opacity="1" stop-color="rgb(100%, 57.252502%, 30.253601%)" offset="0.992187"/><stop stop-opacity="1" stop-color="rgb(100%, 57.015991%, 30.21698%)" offset="1"/></linearGradient></defs><g clip-path="url(#eb10d3738f)"><g clip-path="url(#92dd3f19e4)"><path fill="url(#6e7fabbefd)" d="M 88.519531 304.519531 L 88.519531 1423.480469 L 1207.480469 1423.480469 L 1207.480469 304.519531 Z M 88.519531 304.519531 " fill-rule="nonzero"/></g></g><g fill="#030201" fill-opacity="1"><g transform="translate(262.532471, 791.270677)"><g><path d="M 119.6875 0 C 118.070312 -5.28125 116.269531 -10.707031 114.28125 -16.28125 C 112.300781 -21.851562 110.359375 -27.425781 108.453125 -33 L 49.0625 -33 C 47.15625 -27.425781 45.210938 -21.851562 43.234375 -16.28125 C 41.253906 -10.707031 39.457031 -5.28125 37.84375 0 L 2.203125 0 C 7.921875 -16.425781 13.347656 -31.601562 18.484375 -45.53125 C 23.617188 -59.46875 28.640625 -72.597656 33.546875 -84.921875 C 38.460938 -97.242188 43.300781 -108.941406 48.0625 -120.015625 C 52.832031 -131.085938 57.785156 -141.898438 62.921875 -152.453125 L 95.703125 -152.453125 C 100.691406 -141.898438 105.601562 -131.085938 110.4375 -120.015625 C 115.28125 -108.941406 120.15625 -97.242188 125.0625 -84.921875 C 129.976562 -72.597656 135.003906 -59.46875 140.140625 -45.53125 C 145.273438 -31.601562 150.703125 -16.425781 156.421875 0 Z M 78.546875 -117.921875 C 77.804688 -115.722656 76.703125 -112.71875 75.234375 -108.90625 C 73.773438 -105.09375 72.085938 -100.691406 70.171875 -95.703125 C 68.265625 -90.710938 66.175781 -85.210938 63.90625 -79.203125 C 61.632812 -73.191406 59.328125 -66.882812 56.984375 -60.28125 L 100.3125 -60.28125 C 97.96875 -66.882812 95.695312 -73.191406 93.5 -79.203125 C 91.300781 -85.210938 89.210938 -90.710938 87.234375 -95.703125 C 85.253906 -100.691406 83.53125 -105.09375 82.0625 -108.90625 C 80.59375 -112.71875 79.421875 -115.722656 78.546875 -117.921875 Z M 78.546875 -117.921875 "/></g></g></g><g fill="#030201" fill-opacity="1"><g transform="translate(421.155785, 791.270677)"><g><path d="M 68.421875 1.984375 C 60.054688 1.984375 51.726562 1.722656 43.4375 1.203125 C 35.15625 0.691406 26.539062 -0.515625 17.59375 -2.421875 L 17.59375 -150.265625 C 24.632812 -151.578125 32.332031 -152.5625 40.6875 -153.21875 C 49.050781 -153.882812 56.828125 -154.21875 64.015625 -154.21875 C 73.703125 -154.21875 82.613281 -153.519531 90.75 -152.125 C 98.882812 -150.738281 105.882812 -148.359375 111.75 -144.984375 C 117.625 -141.609375 122.207031 -137.171875 125.5 -131.671875 C 128.800781 -126.171875 130.453125 -119.382812 130.453125 -111.3125 C 130.453125 -99.144531 124.585938 -89.539062 112.859375 -82.5 C 122.535156 -78.832031 129.132812 -73.84375 132.65625 -67.53125 C 136.175781 -61.226562 137.9375 -54.117188 137.9375 -46.203125 C 137.9375 -30.210938 132.101562 -18.179688 120.4375 -10.109375 C 108.78125 -2.046875 91.441406 1.984375 68.421875 1.984375 Z M 51.046875 -66.4375 L 51.046875 -27.0625 C 53.535156 -26.769531 56.242188 -26.550781 59.171875 -26.40625 C 62.109375 -26.257812 65.335938 -26.1875 68.859375 -26.1875 C 79.128906 -26.1875 87.414062 -27.648438 93.71875 -30.578125 C 100.03125 -33.515625 103.1875 -38.941406 103.1875 -46.859375 C 103.1875 -53.898438 100.546875 -58.921875 95.265625 -61.921875 C 89.984375 -64.929688 82.425781 -66.4375 72.59375 -66.4375 Z M 51.046875 -92.625 L 67.765625 -92.625 C 78.316406 -92.625 85.863281 -93.976562 90.40625 -96.6875 C 94.957031 -99.40625 97.234375 -103.769531 97.234375 -109.78125 C 97.234375 -115.9375 94.882812 -120.257812 90.1875 -122.75 C 85.5 -125.25 78.609375 -126.5 69.515625 -126.5 C 66.585938 -126.5 63.4375 -126.460938 60.0625 -126.390625 C 56.6875 -126.316406 53.679688 -126.132812 51.046875 -125.84375 Z M 51.046875 -92.625 "/></g></g></g><g fill="#030201" fill-opacity="1"><g transform="translate(568.998908, 791.270677)"><g><path d="M 46.421875 -76.34375 C 46.421875 -68.863281 47.335938 -62.113281 49.171875 -56.09375 C 51.003906 -50.082031 53.644531 -44.910156 57.09375 -40.578125 C 60.539062 -36.253906 64.753906 -32.921875 69.734375 -30.578125 C 74.722656 -28.234375 80.445312 -27.0625 86.90625 -27.0625 C 93.207031 -27.0625 98.890625 -28.234375 103.953125 -30.578125 C 109.015625 -32.921875 113.265625 -36.253906 116.703125 -40.578125 C 120.148438 -44.910156 122.789062 -50.082031 124.625 -56.09375 C 126.457031 -62.113281 127.375 -68.863281 127.375 -76.34375 C 127.375 -83.820312 126.457031 -90.601562 124.625 -96.6875 C 122.789062 -102.769531 120.148438 -107.972656 116.703125 -112.296875 C 113.265625 -116.628906 109.015625 -119.96875 103.953125 -122.3125 C 98.890625 -124.664062 93.207031 -125.84375 86.90625 -125.84375 C 80.445312 -125.84375 74.722656 -124.628906 69.734375 -122.203125 C 64.753906 -119.785156 60.539062 -116.410156 57.09375 -112.078125 C 53.644531 -107.753906 51.003906 -102.550781 49.171875 -96.46875 C 47.335938 -90.382812 46.421875 -83.675781 46.421875 -76.34375 Z M 162.796875 -76.34375 C 162.796875 -63.289062 160.851562 -51.8125 156.96875 -41.90625 C 153.082031 -32.007812 147.765625 -23.722656 141.015625 -17.046875 C 134.273438 -10.378906 126.242188 -5.359375 116.921875 -1.984375 C 107.609375 1.390625 97.601562 3.078125 86.90625 3.078125 C 76.488281 3.078125 66.660156 1.390625 57.421875 -1.984375 C 48.179688 -5.359375 40.113281 -10.378906 33.21875 -17.046875 C 26.320312 -23.722656 20.894531 -32.007812 16.9375 -41.90625 C 12.976562 -51.8125 11 -63.289062 11 -76.34375 C 11 -89.394531 13.050781 -100.867188 17.15625 -110.765625 C 21.257812 -120.671875 26.796875 -128.992188 33.765625 -135.734375 C 40.734375 -142.484375 48.800781 -147.546875 57.96875 -150.921875 C 67.132812 -154.296875 76.78125 -155.984375 86.90625 -155.984375 C 97.3125 -155.984375 107.132812 -154.296875 116.375 -150.921875 C 125.613281 -147.546875 133.679688 -142.484375 140.578125 -135.734375 C 147.472656 -128.992188 152.898438 -120.671875 156.859375 -110.765625 C 160.816406 -100.867188 162.796875 -89.394531 162.796875 -76.34375 Z M 162.796875 -76.34375 "/></g></g></g><g fill="#030201" fill-opacity="1"><g transform="translate(742.802558, 791.270677)"><g><path d="M 77.21875 3.078125 C 66.507812 3.078125 57.269531 1.578125 49.5 -1.421875 C 41.726562 -4.429688 35.3125 -8.613281 30.25 -13.96875 C 25.1875 -19.320312 21.445312 -25.703125 19.03125 -33.109375 C 16.613281 -40.515625 15.40625 -48.691406 15.40625 -57.640625 L 15.40625 -152.453125 L 49.71875 -152.453125 L 49.71875 -60.5 C 49.71875 -54.34375 50.414062 -49.097656 51.8125 -44.765625 C 53.207031 -40.441406 55.113281 -36.921875 57.53125 -34.203125 C 59.945312 -31.492188 62.878906 -29.550781 66.328125 -28.375 C 69.773438 -27.207031 73.550781 -26.625 77.65625 -26.625 C 86.019531 -26.625 92.800781 -29.1875 98 -34.3125 C 103.207031 -39.445312 105.8125 -48.175781 105.8125 -60.5 L 105.8125 -152.453125 L 140.140625 -152.453125 L 140.140625 -57.640625 C 140.140625 -48.691406 138.890625 -40.476562 136.390625 -33 C 133.898438 -25.519531 130.085938 -19.101562 124.953125 -13.75 C 119.828125 -8.394531 113.300781 -4.25 105.375 -1.3125 C 97.457031 1.613281 88.070312 3.078125 77.21875 3.078125 Z M 77.21875 3.078125 "/></g></g></g><g fill="#030201" fill-opacity="1"><g transform="translate(898.345833, 791.270677)"><g><path d="M 130.6875 -152.453125 L 130.6875 -123.203125 L 84.703125 -123.203125 L 84.703125 0 L 50.375 0 L 50.375 -123.203125 L 4.40625 -123.203125 L 4.40625 -152.453125 Z M 130.6875 -152.453125 "/></g></g></g><g fill="#030201" fill-opacity="1"><g transform="translate(506.188701, 1098.770651)"><g><path d="M 77.21875 3.078125 C 66.507812 3.078125 57.269531 1.578125 49.5 -1.421875 C 41.726562 -4.429688 35.3125 -8.613281 30.25 -13.96875 C 25.1875 -19.320312 21.445312 -25.703125 19.03125 -33.109375 C 16.613281 -40.515625 15.40625 -48.691406 15.40625 -57.640625 L 15.40625 -152.453125 L 49.71875 -152.453125 L 49.71875 -60.5 C 49.71875 -54.34375 50.414062 -49.097656 51.8125 -44.765625 C 53.207031 -40.441406 55.113281 -36.921875 57.53125 -34.203125 C 59.945312 -31.492188 62.878906 -29.550781 66.328125 -28.375 C 69.773438 -27.207031 73.550781 -26.625 77.65625 -26.625 C 86.019531 -26.625 92.800781 -29.1875 98 -34.3125 C 103.207031 -39.445312 105.8125 -48.175781 105.8125 -60.5 L 105.8125 -152.453125 L 140.140625 -152.453125 L 140.140625 -57.640625 C 140.140625 -48.691406 138.890625 -40.476562 136.390625 -33 C 133.898438 -25.519531 130.085938 -19.101562 124.953125 -13.75 C 119.828125 -8.394531 113.300781 -4.25 105.375 -1.3125 C 97.457031 1.613281 88.070312 3.078125 77.21875 3.078125 Z M 77.21875 3.078125 "/></g></g></g><g fill="#030201" fill-opacity="1"><g transform="translate(661.731968, 1098.770651)"><g><path d="M 59.1875 -26.1875 C 64.019531 -26.1875 68.015625 -26.585938 71.171875 -27.390625 C 74.328125 -28.191406 76.859375 -29.289062 78.765625 -30.6875 C 80.671875 -32.082031 81.988281 -33.734375 82.71875 -35.640625 C 83.445312 -37.546875 83.8125 -39.671875 83.8125 -42.015625 C 83.8125 -47.003906 81.460938 -51.148438 76.765625 -54.453125 C 72.078125 -57.753906 64.015625 -61.3125 52.578125 -65.125 C 47.585938 -66.882812 42.597656 -68.898438 37.609375 -71.171875 C 32.628906 -73.441406 28.160156 -76.300781 24.203125 -79.75 C 20.242188 -83.195312 17.015625 -87.375 14.515625 -92.28125 C 12.023438 -97.195312 10.78125 -103.175781 10.78125 -110.21875 C 10.78125 -117.257812 12.097656 -123.601562 14.734375 -129.25 C 17.378906 -134.894531 21.117188 -139.695312 25.953125 -143.65625 C 30.796875 -147.613281 36.664062 -150.65625 43.5625 -152.78125 C 50.457031 -154.914062 58.226562 -155.984375 66.875 -155.984375 C 77.144531 -155.984375 86.019531 -154.878906 93.5 -152.671875 C 100.976562 -150.472656 107.140625 -148.054688 111.984375 -145.421875 L 102.078125 -118.359375 C 97.828125 -120.554688 93.097656 -122.5 87.890625 -124.1875 C 82.679688 -125.875 76.410156 -126.71875 69.078125 -126.71875 C 60.867188 -126.71875 54.96875 -125.582031 51.375 -123.3125 C 47.78125 -121.039062 45.984375 -117.554688 45.984375 -112.859375 C 45.984375 -110.078125 46.640625 -107.726562 47.953125 -105.8125 C 49.273438 -103.90625 51.144531 -102.179688 53.5625 -100.640625 C 55.988281 -99.109375 58.773438 -97.71875 61.921875 -96.46875 C 65.078125 -95.21875 68.5625 -93.9375 72.375 -92.625 C 80.300781 -89.6875 87.195312 -86.785156 93.0625 -83.921875 C 98.925781 -81.066406 103.800781 -77.734375 107.6875 -73.921875 C 111.570312 -70.109375 114.46875 -65.632812 116.375 -60.5 C 118.28125 -55.363281 119.234375 -49.128906 119.234375 -41.796875 C 119.234375 -27.566406 114.242188 -16.53125 104.265625 -8.6875 C 94.296875 -0.84375 79.269531 3.078125 59.1875 3.078125 C 52.4375 3.078125 46.347656 2.671875 40.921875 1.859375 C 35.492188 1.054688 30.6875 0.0703125 26.5 -1.09375 C 22.320312 -2.269531 18.726562 -3.515625 15.71875 -4.828125 C 12.71875 -6.148438 10.191406 -7.398438 8.140625 -8.578125 L 17.8125 -35.859375 C 22.363281 -33.367188 27.972656 -31.132812 34.640625 -29.15625 C 41.316406 -27.175781 49.5 -26.1875 59.1875 -26.1875 Z M 59.1875 -26.1875 "/></g></g></g></svg>